<svg xmlns="http://www.w3.org/2000/svg" xmlns:xlink="http://www.w3.org/1999/xlink" version="1.1" width="256"
     height="256" viewBox="0 0 256 256" xml:space="preserve">
<g style="stroke: none; stroke-width: 0; stroke-dasharray: none; stroke-linecap: butt; stroke-linejoin: miter; stroke-miterlimit: 10; fill: none; fill-rule: nonzero; opacity: 1;"
   transform="translate(1.4065934065934016 1.4065934065934016) scale(2.81 2.81)">
    <!-- Original tree trunk -->
    <path
        d="M 36.717 90 h 17.786 c -3.688 -3.683 -3.603 -9.403 -3.627 -15.108 l 0 0 c 0.223 -6.449 2.375 -13.838 3.337 -21.428 l -2.278 -0.206 c -0.421 3.709 -1.478 7.201 -2.758 10.155 c -1.933 -4.69 -3.368 -7.247 -3.516 -12.666 h -1.608 c -0.749 4.365 -0.278 8.941 1.608 13.76 c -2.931 -4.097 -6.019 -7.1 -9.292 -8.813 l -1.659 1.674 c 4.013 2.908 7.848 8.641 7.499 15.218 C 42.208 80.466 41.172 85.438 36.717 90 z"
        style="stroke: none; stroke-width: 1; stroke-dasharray: none; stroke-linecap: butt; stroke-linejoin: miter; stroke-miterlimit: 10; fill: rgb(180,103,51); fill-rule: nonzero; opacity: 1;"
        transform=" matrix(1 0 0 1 0 0) " stroke-linecap="round"/>
    <!-- Original leaves -->
    <path
        d="M 83.376 27.144 c 0 -3.078 -2.095 -5.66 -4.936 -6.415 c 0.003 -0.077 0.012 -0.153 0.012 -0.23 c 0 -3.67 -2.975 -6.646 -6.646 -6.646 c -0.605 0 -1.189 0.088 -1.746 0.24 c -0.25 -3.442 -3.115 -6.16 -6.621 -6.16 c -0.939 0 -1.831 0.197 -2.641 0.548 c -0.419 -3.267 -3.204 -5.795 -6.585 -5.795 c -1.575 0 -3.02 0.551 -4.159 1.466 C 48.972 1.712 46.546 0 43.704 0 c -2.863 0 -5.322 1.729 -6.392 4.199 c -0.189 -0.015 -0.379 -0.025 -0.571 -0.025 c -2.287 0 -4.316 1.102 -5.585 2.804 c -1.173 -0.9 -2.64 -1.436 -4.233 -1.436 c -3.846 0 -6.963 3.118 -6.963 6.963 c -3.846 0 -6.963 3.118 -6.963 6.963 c 0 0.849 0.152 1.662 0.431 2.414 c -3.718 0.476 -6.592 3.65 -6.592 7.497 c 0 2.284 1.014 4.33 2.615 5.716 c -0.843 1.219 -1.337 2.698 -1.337 4.292 c 0 0.86 0.146 1.686 0.411 2.457 c -1.18 1.334 -1.898 3.086 -1.898 5.007 c 0 4.176 3.385 7.561 7.561 7.561 c 1.692 0 3.254 -0.556 4.514 -1.495 c 0.826 3.28 3.795 5.708 7.331 5.708 c 1.967 0 3.758 -0.752 5.103 -1.983 c 1.231 1.966 3.415 3.274 5.905 3.274 c 3.846 0 6.963 -3.118 6.963 -6.963 c 0 -0.061 -0.003 -0.121 -0.005 -0.182 c 0.978 0.506 2.087 0.793 3.264 0.793 c 1.579 0 3.038 -0.515 4.219 -1.385 c 0.995 3.382 4.121 5.851 7.825 5.851 c 2.239 0 4.266 -0.902 5.741 -2.363 c 1.015 0.453 2.138 0.707 3.321 0.707 c 4.506 0 8.158 -3.652 8.158 -8.158 c 0 -1.258 -0.285 -2.449 -0.793 -3.512 c 3.278 -1.058 5.649 -4.133 5.649 -7.763 c 0 -1.52 -0.423 -2.938 -1.148 -4.157 C 82.117 31.611 83.376 29.527 83.376 27.144 z"
        style="stroke: none; stroke-width: 1; stroke-dasharray: none; stroke-linecap: butt; stroke-linejoin: miter; stroke-miterlimit: 10; fill: rgb(86,148,65); fill-rule: nonzero; opacity: 1;"
        transform=" matrix(1 0 0 1 0 0) " stroke-linecap="round"/>

    <!-- Intense Minecraft-style cracks -->
    <g style="opacity: 0.85">
        <!-- Major crack network through leaves -->
        <path d="M 45 20 l 5 8 l -3 4 l 6 5 l -4 6"
              style="stroke: rgba(0,0,0,0.5); stroke-width: 3; fill: none"/>
        <path d="M 35 25 l -4 6 l 3 4 l -5 3"
              style="stroke: rgba(0,0,0,0.5); stroke-width: 3; fill: none"/>
        <path d="M 55 28 l 6 4 l -3 5 l 4 3"
              style="stroke: rgba(0,0,0,0.5); stroke-width: 3; fill: none"/>

        <!-- Extended cracks through trunk -->
        <path d="M 45 40 l -3 10 l 5 8 l -4 12 l 6 10"
              style="stroke: rgba(0,0,0,0.5); stroke-width: 3; fill: none"/>
        <path d="M 35 45 l 4 15 l -3 10 l 5 12"
              style="stroke: rgba(0,0,0,0.5); stroke-width: 3; fill: none"/>
        <path d="M 50 42 l 2 13 l -4 15 l 3 8"
              style="stroke: rgba(0,0,0,0.5); stroke-width: 3; fill: none"/>

        <!-- Dense crack network in leaves -->
        <path d="M 40 15 l 3 4 l -2 3 l 4 2 l -3 4 l 5 3"
              style="stroke: rgba(0,0,0,0.4); stroke-width: 2; fill: none"/>
        <path d="M 50 18 l -4 5 l 3 3 l -5 4 l 2 3"
              style="stroke: rgba(0,0,0,0.4); stroke-width: 2; fill: none"/>
        <path d="M 30 28 l 4 3 l -3 4 l 5 2 l -2 3"
              style="stroke: rgba(0,0,0,0.4); stroke-width: 2; fill: none"/>
        <path d="M 60 25 l -3 4 l 2 3 l -4 3"
              style="stroke: rgba(0,0,0,0.4); stroke-width: 2; fill: none"/>

        <!-- Dense crack network in trunk -->
        <path d="M 38 50 l 2 5 l -3 4 l 4 6"
              style="stroke: rgba(0,0,0,0.4); stroke-width: 2; fill: none"/>
        <path d="M 45 55 l -2 7 l 3 5 l -4 8"
              style="stroke: rgba(0,0,0,0.4); stroke-width: 2; fill: none"/>
        <path d="M 42 70 l 3 6 l -2 5 l 4 4"
              style="stroke: rgba(0,0,0,0.4); stroke-width: 2; fill: none"/>

        <!-- Spider web-like cracks throughout -->
        <path d="M 40 20 l 2 2 l -1 2 l 2 1 m -4 -3 l 1 2 l -2 1"
              style="stroke: rgba(0,0,0,0.3); stroke-width: 1; fill: none"/>
        <path d="M 50 22 l -2 2 l 1 2 l -2 1 m 4 -3 l -1 2 l 2 1"
              style="stroke: rgba(0,0,0,0.3); stroke-width: 1; fill: none"/>
        <path d="M 43 60 l 2 2 l -1 2 l 2 1 m -4 -3 l 1 2 l -2 1"
              style="stroke: rgba(0,0,0,0.3); stroke-width: 1; fill: none"/>
        <path d="M 47 75 l -2 2 l 1 2 l -2 1 m 4 -3 l -1 2 l 2 1"
              style="stroke: rgba(0,0,0,0.3); stroke-width: 1; fill: none"/>

        <!-- Particle effects throughout -->
        <g style="fill: rgba(0,0,0,0.4)">
            <!-- Upper particles -->
            <circle cx="43" cy="28" r="1"/>
            <circle cx="48" cy="35" r="1"/>
            <circle cx="52" cy="25" r="1"/>
            <circle cx="38" cy="32" r="1"/>
            <circle cx="45" cy="30" r="1"/>
            <!-- Middle particles -->
            <circle cx="41" cy="50" r="1"/>
            <circle cx="46" cy="45" r="1"/>
            <circle cx="39" cy="55" r="1"/>
            <circle cx="44" cy="60" r="1"/>
            <!-- Lower particles -->
            <circle cx="42" cy="70" r="1"/>
            <circle cx="47" cy="75" r="1"/>
            <circle cx="40" cy="80" r="1"/>
            <circle cx="45" cy="85" r="1"/>
            <!-- Small debris throughout -->
            <circle cx="44" cy="33" r="0.5"/>
            <circle cx="49" cy="31" r="0.5"/>
            <circle cx="42" cy="65" r="0.5"/>
            <circle cx="47" cy="58" r="0.5"/>
            <circle cx="41" cy="77" r="0.5"/>
            <circle cx="46" cy="82" r="0.5"/>
        </g>

        <!-- Deep fractures throughout -->
        <path d="M 35 20 l 25 25"
              style="stroke: rgba(0,0,0,0.6); stroke-width: 2.5; fill: none"/>
        <path d="M 55 20 l -25 25"
              style="stroke: rgba(0,0,0,0.6); stroke-width: 2.5; fill: none"/>
        <path d="M 40 45 l 15 35"
              style="stroke: rgba(0,0,0,0.6); stroke-width: 2.5; fill: none"/>
        <path d="M 45 45 l -10 40"
              style="stroke: rgba(0,0,0,0.6); stroke-width: 2.5; fill: none"/>
    </g>
</g>
</svg>
